<svg width="20" height="25" fill="none" xmlns="http://www.w3.org/2000/svg"><path d="M16.036 8.254H3.964a.499.499 0 00-.487.51V19.4a.5.5 0 00.487.511h2.152v3.584c0 .832.642 1.506 1.433 1.506.792 0 1.434-.674 1.434-1.506V19.91h2.004v3.584c0 .832.642 1.506 1.434 1.506.791 0 1.433-.674 1.433-1.506V19.91h2.182a.499.499 0 00.487-.51V8.763a.5.5 0 00-.487-.51zM1.433 8.251C.642 8.251 0 8.925 0 9.757v6.116c0 .831.642 1.505 1.433 1.505.792 0 1.434-.674 1.434-1.505V9.757c0-.832-.642-1.506-1.434-1.506zm17.134 0c-.792 0-1.434.674-1.434 1.506v6.116c0 .831.642 1.505 1.434 1.505.791 0 1.433-.674 1.433-1.505V9.757c0-.832-.642-1.506-1.433-1.506zM4.061 7.508h11.85c.308 0 .539-.3.475-.617-.392-1.962-1.581-3.616-3.195-4.571L14.204.4a.276.276 0 00-.1-.366.25.25 0 00-.348.105l-1.02 1.934a6.254 6.254 0 00-2.75-.635 6.26 6.26 0 00-2.75.635L6.216.14a.25.25 0 00-.349-.105.276.276 0 00-.1.366L6.78 2.32c-1.614.955-2.803 2.608-3.195 4.57-.063.319.167.618.476.618zm9.46-2.861c0 .32-.246.578-.55.578a.565.565 0 01-.552-.578c0-.32.247-.58.551-.58.305 0 .551.26.551.58zm-6.52-.58c.304 0 .551.26.551.58 0 .32-.247.578-.551.578a.565.565 0 01-.551-.578c0-.32.247-.58.551-.58z" fill="#AAC148"/></svg>