<svg data-name="Слой 1" xmlns="http://www.w3.org/2000/svg" viewBox="0 0 25.827 25.827"><path d="M12.914.25a12.56 12.56 0 00-4.192.728.08.08 0 00-.021.008 12.7 12.7 0 00-5.912 4.353l-.008.011A12.647 12.647 0 1012.914.25zm9.848 7.606a11 11 0 011.15 3.759l-1.59-1.736zm-1.215-1.871l-.777 3.582-2.484 1.216-4.564-3.329V4.365l3.252-1.75a11.091 11.091 0 014.573 3.37zm-4.285 6.01l-1.74 4.876h-5.214l-1.716-4.874 4.336-3.161zM12.914 1.833a11.068 11.068 0 011.858.168l-1.843.991-1.843-1a11.2 11.2 0 011.828-.159zm-4.033.771l3.256 1.757v3.093L7.57 10.783l-2.5-1.219-.776-3.6A11.117 11.117 0 018.88 2.603zm-5.8 5.224l.442 2.05-1.607 1.746A10.961 10.961 0 013.08 7.827zm.7 11.345a11.008 11.008 0 01-1.892-5.183l2.68-2.911 2.444 1.2 1.841 5.229-1.553 1.865zm1.4 1.664l1.874.1.545 1.694a11.193 11.193 0 01-2.419-1.795zm10.555 2.778a10.877 10.877 0 01-6.208-.155l-1-3.1 1.594-1.906h5.59l1.559 1.847zm2.113-.8l.9-1.942 2.286-.451a11.113 11.113 0 01-3.186 2.393zm.659-3.508l-1.531-1.812 1.865-5.225 2.433-1.192 2.664 2.908a10.965 10.965 0 01-1.493 4.545z" fill="none" stroke="#fff" stroke-miterlimit="10" stroke-width=".5"/></svg>