<svg data-name="Слой 1" xmlns="http://www.w3.org/2000/svg" viewBox="0 0 37.722 37.722"><g fill="none" stroke="#fff" stroke-miterlimit="10" data-name="casino_coin"><path d="M18.861.5a18.361 18.361 0 1018.361 18.361A18.361 18.361 0 0018.861.5zm0 35.09a16.729 16.729 0 1116.726-16.729 16.729 16.729 0 01-16.726 16.725z"/><path d="M10.41 11.886L7.08 8.201a14.122 14.122 0 015.237-3.778 13.75 13.75 0 013.136-.873l1.487 4.17a13.33 13.33 0 00-6.53 4.17zm-2.101 11.06l-4.849.323a16.094 16.094 0 01.1-8.922l5.011.614a16.487 16.487 0 00-.259 7.985zM20.463 7.979l1.843-4.461a14.5 14.5 0 018.082 4.72l-3.101 3.878a10.535 10.535 0 00-6.821-4.138zm13.448 6.174a22.726 22.726 0 01-.065 9.342l-4.752-.582a13.585 13.585 0 00-.032-7.985zM15.287 34.325a17.309 17.309 0 01-8.211-4.817l3.265-3.653a12.114 12.114 0 006.5 3.782zm6.954-.291a15.5 15.5 0 007.952-4.558l-3.006-3.718a10.819 10.819 0 01-6.659 3.911z"/><circle cx="18.823" cy="18.9" r="9.854"/><path d="M21.556 15.559a3.268 3.268 0 00-2.622-1.179c-1.288 0-2.467.373-2.467 1.458 0 1.024 1.226 1.21 2.529 1.366 2.265.279 4.686.683 4.686 3.413 0 2.095-1.753 3.274-3.677 3.413v1.556h-1.971v-1.478a4.614 4.614 0 01-4.08-2.653l1.831-.776a3.394 3.394 0 003.088 1.629c1.4 0 2.685-.481 2.685-1.691 0-1.024-1.288-1.4-2.731-1.567-2.219-.248-4.391-.636-4.391-3.212 0-2.033 1.8-2.963 3.6-3.181v-1.35h1.971v1.35a3.9 3.9 0 013.225 2.129z"/></g></svg>