<svg width="25" height="25" fill="none" xmlns="http://www.w3.org/2000/svg"><path d="M6.252 10.74a1.54 1.54 0 00-1.544 1.544v8.447a1.54 1.54 0 001.544 1.544 1.54 1.54 0 001.544-1.544v-8.447a1.55 1.55 0 00-1.544-1.544z" stroke="#fff" stroke-miterlimit="10" stroke-linejoin="round"/><path d="M4.708 12.11S.757 11.99.757 16.508s3.95 4.397 3.95 4.397" stroke="#fff" stroke-miterlimit="10" stroke-linejoin="round"/><path d="M2.581 16.182s.015-1.99 2.127-2.369" stroke="#fff" stroke-miterlimit="10" stroke-linecap="round" stroke-linejoin="round"/><path d="M18.65 10.74a1.54 1.54 0 011.544 1.544v8.447a1.54 1.54 0 01-1.544 1.544 1.54 1.54 0 01-1.544-1.544v-8.447a1.54 1.54 0 011.544-1.544z" stroke="#fff" stroke-miterlimit="10" stroke-linejoin="round"/><path d="M20.194 12.11s3.95-.12 3.95 4.398-3.95 4.397-3.95 4.397" stroke="#fff" stroke-miterlimit="10" stroke-linejoin="round"/><path d="M22.32 16.182s-.015-1.99-2.126-2.369M12.45 24.432c1.038 0 1.878-.508 1.878-1.135s-.84-1.135-1.877-1.135-1.877.508-1.877 1.135.84 1.135 1.877 1.135z" stroke="#fff" stroke-miterlimit="10" stroke-linecap="round" stroke-linejoin="round"/><path d="M14.328 23.297s2.793.65 4.617-1.03m1.37-15.561a8.834 8.834 0 011.143 4.382v1.234m-18.014 0v-1.234c0-1.597.409-3.088 1.143-4.382" stroke="#fff" stroke-miterlimit="10" stroke-linejoin="round"/><path d="M19.588 6.933c-.393 0-.787-.174-1.052-.515a7.628 7.628 0 00-6.085-3.012 7.617 7.617 0 00-6.086 3.012 1.318 1.318 0 01-1.854.243 1.318 1.318 0 01-.242-1.855A10.227 10.227 0 0112.45.756c3.224 0 6.206 1.477 8.19 4.043.446.582.34 1.415-.243 1.854-.242.19-.53.28-.81.28z" stroke="#fff" stroke-miterlimit="10"/></svg>