<svg width="23" height="25" fill="none" xmlns="http://www.w3.org/2000/svg"><path d="M0 0h22.999v25H0z"/><path d="M0 0h17.514v24.995H0z"/><path d="M6.358 24.648c0-.034.01-.17.119-.273.118-.113.261-.098.285-.098h6.799c-.005-1.148-.005-2.292-.01-3.44 0-.014.005-.039.01-.063.028-.127.152-.318.352-.318.195 0 .319.18.342.318a.33.33 0 01.005.063v3.45h2.008a.595.595 0 00.242-.05c.038-.019.186-.092.267-.263a.575.575 0 00.047-.25c.005-.39-.057-.64-.057-.64-.11-.454-.176-.923-.276-1.377 0 0-.028-.132-.104-.523-.148-.733-.2-1.006-.057-1.153a.337.337 0 01.2-.098.344.344 0 01.261.098c.076.073.09.161.129.337.337 1.715.038-.02.09.455.014.122.019.092.271 1.275.043.2.167.796.224 1.456.014.146.028.386-.086.645-.085.195-.2.312-.257.371-.414.415-1.042.425-1.199.425H6.73c-.024 0-.067 0-.11-.01-.033-.01-.157-.034-.223-.151-.043-.078-.038-.147-.038-.186z" fill="#fff"/><path d="M0 0h16.544v24.98H0z"/><path d="M16.325 17.456c-.029-.063-.114-.254-.266-.483a2.274 2.274 0 00-.348-.43 1.952 1.952 0 00-.533-.357c-.504-.235-.923-.352-1.432-.523-.866-.288-.88-.361-1.408-.508-.1-.03-.38-.103-.737-.25a3.68 3.68 0 01-.362-.165h2.398c.085-.015.419-.074.661-.318a1.002 1.002 0 00.28-.503c.025-.313.053-.757.091-1.28.029-.445.09-1.388.181-3.059.114-2.16.114-2.54.1-2.975-.038-1.227-.162-1.779-.2-1.96-.119-.512-.304-1.27-.847-2.076a5.471 5.471 0 00-1.165-1.246 6.013 6.013 0 00-1.66-.967c-.181-.064-.867-.308-1.8-.347A5.18 5.18 0 007.662.16c-.338.088-.899.245-1.45.655a4.82 4.82 0 00-.876.875 1.103 1.103 0 00-.095.132 2.525 2.525 0 00-.857.376c-.38.259-.594.552-.728.747-.328.47-.461.904-.585 1.32-.01.034-.1.322-.166.708-.138.806 0 .938.042.972a.346.346 0 00.238.064.389.389 0 00.257-.162c.024-.039.038-.073.081-.337a4.79 4.79 0 00.033-.224c.067-.606.267-1.129.267-1.129.152-.4.338-.674.39-.752.1-.142.3-.426.637-.67.186-.132.343-.205.39-.23.158-.068.296-.107.405-.131.152-.24.414-.592.828-.914.585-.45 1.151-.591 1.513-.67A4.83 4.83 0 019.83.748a5.264 5.264 0 012.617 1.255 5.247 5.247 0 011.241 1.618c.224.473.333.903.38 1.104.086.361.139.708.177 1.182.062.875.024 1.544-.005 2.042-.095 1.706-.043.958-.138 2.634-.052.904-.104 1.69-.152 2.887-.005.118-.01.215-.01.284a.69.69 0 01-.233.273c-.033.02-.062.035-.09.05h-2.55v-.304c.361-.21.832-.547 1.275-1.065.509-.591.747-1.143.8-1.265a5.113 5.113 0 00.365-1.451V8.344a.772.772 0 00-.214-.39.621.621 0 00-.128-.098c-.186-.118-.38-.118-.438-.118-.342-.005-.68-.083-1.023-.122-.523-.063-.913-.215-1.332-.381a6.634 6.634 0 01-.842-.396 6.901 6.901 0 01-.913-.615c-.276-.21-.42-.313-.571-.48-.186-.2-.329-.366-.329-.366-.157-.18-.185-.22-.266-.278a.767.767 0 00-.776-.073c-.128.063-.204.146-.261.205 0 0-.271.288-.585.508-.276.195-.552.293-.605.313-.138.049-.223.068-.437.151-.205.078-.305.122-.371.186-.138.137-.21.337-.253.454-.014.04-.023.073-.033.098v2.95c.024.24.067.548.162.895.143.523.333.899.428 1.07.304.562.638.914.847 1.134.347.361.604.527.752.61.038.025.07.04.095.054v.4H4.207a.398.398 0 01-.29-.141.327.327 0 01-.062-.132c-.01-.102-.019-.25-.038-.43-.067-.865-.09-1.373-.171-2.848C3.55 8.73 3.55 8.794 3.55 8.74c.014-.415-.057-.83-.067-1.246 0-.02 0-.098-.033-.195-.02-.06-.038-.132-.09-.186a.35.35 0 00-.438-.034c-.11.083-.134.22-.143.259-.01.044-.01.078-.01.107.034.704.067 1.27.09 1.647.058.918.077 1.035.11 1.72a51.6 51.6 0 01.067 1.485s.01.498.076 1.207c.038.38.071.64.247.855.205.259.476.342.476.342.048.014.09.024.119.029H6.22c-.324.137-.586.244-.762.308-.428.166-.547.19-1.346.479-.485.17-.404.151-.728.263-.466.167-.57.19-.813.298-.3.132-.481.21-.7.381-.247.196-.395.401-.438.46-.19.273-.27.527-.323.698-.067.206-.09.367-.1.42-.08.49-.224 1.193-.495 2.551-.143.713-.261 1.436-.428 2.145 0 0-.1.42-.086.977.005.25.029.357.057.445.124.361.405.557.514.625.238.147.476.176.61.19.08.01.147.01.2.01h3.6a.407.407 0 00.362-.22.363.363 0 00.029-.229.36.36 0 00-.167-.24.3.3 0 00-.185-.034H3.94v-3.444c0-.025.01-.152-.081-.25-.076-.078-.171-.082-.233-.087a.354.354 0 00-.233.049.317.317 0 00-.143.185c-.014.05-.01.088-.01.113v3.454H1.02a.91.91 0 01-.348-.503c-.024-.118-.014-.235.01-.455.033-.312.085-.522.085-.527.162-.675.272-1.364.41-2.048.161-.81.242-1.216.295-1.524 0 0 .057-.342.195-.967.119-.548.157-.65.218-.763.21-.376.533-.566.719-.674.338-.195.694-.283.937-.342.067-.015.124-.03.162-.039a9.32 9.32 0 00.238 1.622c.043.176.1.352.195.557.171.352.37.572.418.616.129.137.314.332.614.45.338.131.628.092.942.048.447-.063.771-.22 1.042-.347.367-.176.623-.361.819-.508.314-.225.585-.469.666-.537.042-.04.08-.074.109-.098.157.137.39.327.685.542.457.337.69.508 1.042.665.28.127.728.322 1.313.293.19-.01.447-.024.733-.176.323-.171.5-.41.618-.577.248-.341.333-.66.428-1.001.143-.508.172-.982.19-1.31.006-.102.01-.19.01-.249.471.098.823.25 1.057.367.309.156.442.273.532.38.034.035.181.206.29.47.053.122.077.215.105.342.067.264.067.4.152.679.02.059.034.103.048.132.024.03.067.083.143.117.11.054.271.054.361-.03a.28.28 0 00.077-.185c.08-.61-.205-1.24-.205-1.24zM5.477 11.794c-.242-.391-.37-.777-.428-.943a4.852 4.852 0 01-.214-.89v-2.97a.84.84 0 01.086-.074.47.47 0 01.185-.083c.143-.039.281-.102.429-.146.185-.054.323-.142.594-.318.224-.141.538-.371.87-.718l.153.156c.28.289.557.557.666.66.438.41.97.738 1.109.826.276.166.875.513 1.703.772a7.67 7.67 0 002.203.347v1.392c0 .078-.005.195-.024.337a3.647 3.647 0 01-.485 1.412 4.298 4.298 0 01-.757.963c-.223.215-.694.66-1.45.923-.13.044-.733.25-1.547.196a3.975 3.975 0 01-1.484-.391 4.06 4.06 0 01-1.609-1.451zm1.79 6.727c-.13.078-.31.181-.538.289-.257.122-.386.18-.566.22-.181.039-.452.092-.738-.025-.31-.127-.47-.39-.585-.576-.143-.235-.195-.43-.262-.684-.152-.567-.152-1.09-.157-1.457v-.097c.133-.054.271-.108.405-.161.357.547 1.084 1.475 2.293 1.92.228.083.452.141.661.18a11.87 11.87 0 00-.514.391zm1.527-1.026c-.3 0-.819 0-1.428-.234-.794-.303-1.289-.826-1.546-1.1a5.814 5.814 0 01-.314-.376l.029-.014c.061-.02.161-.054.285-.098.485-.166.561-.18.704-.254.176-.093.314-.166.428-.332a.888.888 0 00.143-.367v-.733c.352.152.97.367 1.76.352a4.349 4.349 0 001.532-.303v.254c.005.337.005.508.038.596.09.269.3.41.343.44a.846.846 0 00.214.098c.219.068.528.176.99.351a2.499 2.499 0 01-.172.25 3.487 3.487 0 01-.656.645 3.608 3.608 0 01-2.35.826zm4.286-1.216c0 .366-.005.894-.157 1.456-.066.254-.119.45-.261.684-.115.19-.276.45-.586.576-.285.117-.556.064-.737.025-.18-.04-.31-.098-.566-.22a5.7 5.7 0 01-.538-.288c-.171-.132-.342-.27-.518-.401a4.19 4.19 0 00.66-.18c1.214-.445 1.942-1.374 2.294-1.921.133.054.271.107.405.161.004.035.004.069.004.108z" fill="#fff"/><path d="M14.622 7.318H23V25h-8.378z"/><path d="M21.387 8.98V7.317H14.94c-.005.142-.01.313-.02.523h5.958v14.975h-3.464c.024.161.047.337.066.523h3.907V9.502h1.108v14.975h-4.33V25H23V8.98h-1.612z" fill="#fff"/><path d="M18.975 19.772c-.585 0-1.06.489-1.06 1.09 0 .6.475 1.09 1.06 1.09.585 0 1.061-.49 1.061-1.09 0-.601-.476-1.09-1.061-1.09zm0 1.661a.565.565 0 01-.557-.571c0-.313.248-.572.557-.572.31 0 .557.254.557.572a.565.565 0 01-.557.571zm.557-11.086h.51V8.701h-1.333v.523h.823v1.123zm-4.91 2.873c.033.044.067.093.095.142l.22.376.218-.376a1.631 1.631 0 011.399-.816c.899 0 1.632.752 1.632 1.676 0 1.104-.971 2.31-1.875 3.195.01.015.014.03.02.04 0 0 .094.21.156.507 1.014-.962 2.208-2.379 2.208-3.742 0-1.212-.961-2.199-2.141-2.199-.624 0-1.213.284-1.618.762a1.965 1.965 0 00-.266-.264c-.005.044-.005.084-.01.118-.01.205-.024.4-.038.581z" fill="#fff"/></svg>