<svg width="25" height="25" fill="none" xmlns="http://www.w3.org/2000/svg"><g clip-path="url(#clip0)" fill="#333"><path d="M24.512 1.277H3.11a.488.488 0 00-.488.488V5.34H.488A.488.488 0 000 5.828v17.407a.488.488 0 00.489.488H21.89a3.113 3.113 0 003.11-3.11V1.766a.488.488 0 00-.488-.488zm-21.89 5.04v14.296c0 .77-.43 1.492-1.1 1.866a2.11 2.11 0 01-.545.21V6.317H2.62zm3.383 16.43a3.099 3.099 0 00.849-2.134v-1.837h13.941v1.837a2.136 2.136 0 01-2.133 2.134H6.005zm18.018-2.133a2.136 2.136 0 01-2.133 2.133h-.969c.527-.557.85-1.308.85-2.134v-2.325a.488.488 0 00-.488-.488H6.365a.488.488 0 00-.488.488v2.325a2.136 2.136 0 01-2.133 2.134H2.75a3.127 3.127 0 00.848-2.133V2.254h20.425v18.36z"/><path d="M6.365 8.735h11.033c.314 0 .54-.3.477-.603a.493.493 0 00-.591-.374H6.854V4.674h13.941v3.573a.488.488 0 00.977 0V4.186a.488.488 0 00-.489-.488H6.365a.488.488 0 00-.488.488v4.06c0 .27.219.489.488.489zm0 3.003h5.644a.488.488 0 000-.976H6.365a.488.488 0 000 .976zm0 4.626h5.644a.488.488 0 100-.977H6.365a.488.488 0 100 .977zm0-2.313h5.644a.488.488 0 100-.976H6.365a.488.488 0 100 .976zm14.918-3.289h-6.682a.488.488 0 00-.489.488v4.625c0 .27.219.489.489.489h6.682a.49.49 0 00.489-.489V11.25a.488.488 0 00-.489-.488zm-.488 4.625h-5.706v-3.649h5.706v3.65z"/><path d="M19.187 8.698c.409.17.82-.276.622-.67-.2-.401-.812-.325-.912.112a.492.492 0 00.29.558z"/></g><defs><clipPath id="clip0"><path fill="#fff" d="M0 0h25v25H0z"/></clipPath></defs></svg>