<svg data-name="Слой 1" xmlns="http://www.w3.org/2000/svg" viewBox="0 0 38.192 25.213"><path d="M29.564 7.347l-4.827-5.509-5.728 6.017-5.692-6.053-5.33 5.509-7.389-6.16 1.8 21.4a66.67 66.67 0 0016.645 2.162 66.671 66.671 0 0016.753-2.09l1.8-21.508zm4.9 3.495l-2.27 2.7 1.837 2.09-.216 2.2A64.159 64.159 0 0118.9 19.561a64.157 64.157 0 01-14.519-1.694l-.18-2.342 1.693-1.981-2.125-2.486-.36-4.5 4.792 4.035 5.08-5.368 5.727 6.013 5.62-5.908 4.611 5.26 5.548-4.323z" fill="none" stroke="#000" stroke-miterlimit="10"/></svg>