<svg width="25" height="25" fill="none" xmlns="http://www.w3.org/2000/svg"><path d="M24.268 1.804h-3.209c.012-.355.018-.712.018-1.072A.732.732 0 0020.346 0H4.655a.732.732 0 00-.733.732c0 .36.007.717.019 1.072H.732A.732.732 0 000 2.537c0 3.282.858 6.378 2.415 8.718 1.54 2.314 3.59 3.641 5.805 3.77a7.52 7.52 0 001.586 1.332v3.256H8.578a2.697 2.697 0 00-2.694 2.693v1.23h-.052a.733.733 0 000 1.464h13.336a.732.732 0 100-1.465h-.052v-1.229a2.697 2.697 0 00-2.694-2.693h-1.228v-3.256a7.513 7.513 0 001.586-1.332c2.215-.129 4.265-1.456 5.805-3.77C24.142 8.915 25 5.82 25 2.537a.732.732 0 00-.732-.733zm-20.633 8.64C2.35 8.514 1.595 5.989 1.48 3.269h2.542c.265 3.343 1.05 6.433 2.276 8.886.195.39.4.76.611 1.107-1.218-.46-2.345-1.422-3.274-2.818zM17.65 22.306v1.23H7.35v-1.23a1.23 1.23 0 011.229-1.229h7.845a1.23 1.23 0 011.228 1.23zm-3.922-2.693H11.27v-2.62a4.773 4.773 0 002.458.001v2.619zm.454-4.362a3.542 3.542 0 01-1.682.439 3.544 3.544 0 01-1.684-.44c-.574-.303-1.13-.761-1.655-1.364a.74.74 0 00-.094-.109c-.521-.62-1.012-1.381-1.46-2.277C6.262 8.807 5.484 5.267 5.396 1.464h14.208c-.089 3.803-.866 7.343-2.212 10.034-.448.897-.939 1.659-1.46 2.278a.718.718 0 00-.094.11c-.525.602-1.081 1.06-1.655 1.364zm7.182-4.807c-.928 1.396-2.056 2.358-3.274 2.818.212-.348.416-.717.611-1.107 1.227-2.453 2.011-5.543 2.276-8.886h2.542c-.115 2.72-.87 5.245-2.155 7.175z" fill="#333"/></svg>