<svg viewBox="0 0 29 25" fill="none" xmlns="http://www.w3.org/2000/svg"><path d="M13.1 4.281h2.2l-3.5-4c-.3-.3-.8-.4-1.2-.1-.3.3-.4.8-.1 1.2l2.6 2.9zm7.4-1.2c.3-.3.3-.8 0-1.2-.3-.3-.8-.3-1.2 0l-2.3 2.4h2.3l1.2-1.2zm-15.1 20.9c0 .5.4 1 1 1h1c.5 0 1-.4 1-1v-.8h-3v.8zm18.4 0c0 .5.4 1 1 1h1c.5 0 1-.4 1-1v-.8h-2.9v.8h-.1z" fill="#fff"/><path d="M26.7 5.581H11.3c.4.6.7 1.3.9 2h7.6c.9 0 1.6.7 1.6 1.6v9.3c0 .9-.7 1.6-1.6 1.6H7.6c-.9 0-1.6-.7-1.6-1.6v-2.7c-.7 0-1.4-.1-2.1-.4v5.1c0 .8.7 1.5 1.5 1.5h21.3c.8 0 1.5-.7 1.5-1.5v-13.4c0-.8-.7-1.5-1.5-1.5zm.2 10c0 .3-.3.6-.6.6h-2.7c-.3 0-.6-.3-.6-.6v-2c0-.3.3-.6.6-.6h2.7c.3 0 .6.3.6.6v2zm0-4.4c0 .3-.3.6-.6.6h-2.7c-.3 0-.6-.3-.6-.6v-2c0-.3.3-.6.6-.6h2.7c.3 0 .6.3.6.6v2z" stroke="#fff" stroke-width=".7"/><path d="M6 3.981c2.9 0 5.3 2.4 5.3 5.3s-2.4 5.3-5.3 5.3-5.3-2.4-5.3-5.3 2.4-5.3 5.3-5.3zm0-.7c-3.3 0-6 2.7-6 6s2.7 6 6 6 6-2.7 6-6-2.7-6-6-6z" fill="#fff"/><path d="M6 11.581l1.8-3.7v-.9H4.6v1.2h1.6l-1.7 3.4H6z" fill="#fff"/></svg>