<svg width="25" height="18" fill="none" xmlns="http://www.w3.org/2000/svg"><path d="M0 0h25v18H0z"/><path d="M0 0h25v18H0z"/><path d="M23.214 4.683A5.6 5.6 0 0018.143 0h-11c-2.714 0-5 1.976-5.429 4.683l-1.643 9C0 13.976 0 14.195 0 14.415 0 16.39 1.571 18 3.5 18a3.466 3.466 0 002.857-1.537l.786-1.097c.214-.293.143-.659-.143-.878-.286-.22-.643-.146-.857.146l-.786 1.17A2.231 2.231 0 013.5 16.83c-1.214 0-2.214-1.024-2.214-2.268 0-.146 0-.293.071-.512L2.93 4.902c.356-2.122 2.14-3.658 4.213-3.658H18c2 .073 3.643 1.61 4 3.658l1.643 9c0 .147.071.293.071.44 0 1.243-1 2.268-2.214 2.268a2.231 2.231 0 01-1.857-1.025l-.857-1.17c-.215-.293-.572-.366-.857-.147-.286.22-.358.586-.143.878l.857 1.171a3.466 3.466 0 002.857 1.537c1.929 0 3.5-1.61 3.5-3.586 0-.22 0-.512-.071-.731l-1.715-8.854z" fill="#fff"/><path d="M15.715 6a.868.868 0 00.857-.878.868.868 0 00-.857-.878.868.868 0 00-.858.878c0 .485.384.878.858.878zm3.427 0A.868.868 0 0020 5.122a.868.868 0 00-.857-.878.868.868 0 00-.857.878c0 .485.384.878.857.878zM7.571 2.561a.648.648 0 00-.643.659v1.17H5.857a.648.648 0 00-.643.659c0 .366.286.658.643.658H7v1.171c0 .366.285.659.642.659a.648.648 0 00.643-.659V5.634h1a.648.648 0 00.643-.658c0-.366-.286-.586-.643-.586H8.142V3.22c.072-.366-.214-.659-.571-.659zm9.857 5.195a.868.868 0 00.858-.878.868.868 0 00-.858-.878.868.868 0 00-.857.878c0 .485.384.878.857.878zm0-3.512a.868.868 0 00.858-.878.868.868 0 00-.858-.878.868.868 0 00-.857.878c0 .485.384.878.857.878z" stroke="#fff" stroke-width=".5" stroke-miterlimit="10"/><path d="M8.714 8.854c-.286 0-.571.073-.857.146-.5.146-.929.512-1.214.878-.358.512-.5 1.098-.5 1.683s.214 1.17.571 1.61c.357.439.857.805 1.429.878.571.146 1.142.073 1.714-.22a3.34 3.34 0 001.214-1.244c.214-.512.286-1.17.143-1.756-.143-.585-.429-1.097-.929-1.463-.428-.293-1-.512-1.571-.512zm2 1.61c.143.219.214.512.214.804l-.357-.366.143-.439zm-.214-.44l-.143.732-.5.22-.929-.732v-.659l.643-.366c.357.293.643.513.929.805zm-.857 1.317l-.358 1.025H8.214l-.357-1.025.857-.658.929.658zm-.929-2.195h.357l-.357.22-.357-.22c.143.073.214 0 .357 0zm-.786.22l.643.366v.658l-.928.732-.5-.293L7 10.097c.214-.365.5-.585.928-.731zm-1.214 1.097l.071.44-.357.365c.072-.292.143-.585.286-.805zm.143 2.342a2.004 2.004 0 01-.357-1.098l.571-.585.5.22.286 1.097-.286.366h-.714zm.286.366H7.5l.143.366c-.215-.074-.358-.22-.5-.366zm2.142.585c-.428.146-.857.073-1.285 0l-.143-.659.357-.365h1.071l.286.366-.286.658zm.429-.146l.214-.44.5-.072a2.56 2.56 0 01-.714.512zm.143-.732l-.286-.439.357-1.098.5-.22.572.586c0 .366-.143.659-.286.951l-.857.22zm6.357-4.024c-.286 0-.571.073-.857.146-.5.146-.929.512-1.214.878-.358.512-.5 1.098-.5 1.683s.214 1.17.571 1.61c.357.439.857.805 1.429.878.571.146 1.142.073 1.714-.22a3.34 3.34 0 001.214-1.244c.214-.512.286-1.17.143-1.756-.143-.585-.429-1.097-.929-1.463-.428-.293-1-.512-1.571-.512zm2 1.61c.143.219.214.512.214.804l-.357-.366.143-.439zm-.214-.44l-.143.732-.5.22-.929-.732v-.659l.643-.366c.357.293.643.513.929.805zm-.929 1.317l-.357 1.025h-1.071l-.358-1.025.858-.658.928.658zm-.857-2.195h.357l-.357.22-.357-.22c.071.073.214 0 .357 0zm-.857.22l.643.366v.658l-.929.732-.5-.22-.143-.731c.286-.44.572-.659.929-.805zm-1.143 1.097l.071.44-.357.365c.072-.292.143-.585.286-.805zm.143 2.342A2.004 2.004 0 0114 11.707l.571-.585.5.22.357 1.097-.285.366h-.786zm.286.366H15l.143.366c-.215-.074-.358-.22-.5-.366zm2.142.585c-.428.146-.857.073-1.285 0l-.215-.659.358-.365h1.142l.286.366-.286.658zm.429-.146l.214-.44.5-.072c-.285.22-.5.365-.714.512zm.143-.732L17 12.439l.357-1.098.5-.22.571.586c0 .366-.143.659-.285.951l-.786.22z" fill="#fff"/></svg>